# xmcd
#
# Track frame offsets:
#	150
#	15103
#	28379
#	43267
#	62223
#	78122
#	92133
#	107135
#	123820
#	138961
#	154784
#	177742
#	192568
#	208520
#	224558
#	239564
#	253616
#	272162
#	290054
#	306921
#	322958
#
# Disc length: 4523 seconds
#
# Revision: 1
# Processed by: cddbd v1.5.2PL0 Copyright (c) Steve Scherf et al.
# Submitted via: audiograbber 1.83.01
#
DISCID=3e11a915
DTITLE=Maren Morris - Essentials
DYEAR=2020
DGENRE=Country
TTITLE0=The Bones
TTITLE1=Redesigning Women
TTITLE2=I Could Use a Love Song
TTITLE3=GIRL
TTITLE4=Crowded Table
TTITLE5=The Middle
TTITLE6=My Church
TTITLE7=Dear Hate (feat. Vince Gill)
TTITLE8=All My Favorite People (feat. Brothers Osborne)
TTITLE9=Rich
TTITLE10=Mona Lisas And Mad Hatters
TTITLE11=To Hell and Back
TTITLE12=13 I'll Be the Moon (feat. Maren Morris)
TTITLE13=80s Mercedes
TTITLE14=The Middle (Acoustic)
TTITLE15=Seeing Blind
TTITLE16=Common (feat. Brandi Carlile)
TTITLE17=Once
TTITLE18=Craving You (feat. Maren Morris)
TTITLE19=Drunk Girls Don't Cry
TTITLE20=The Bones (Acoustic)
EXTD=
EXTT0=
EXTT1=
EXTT2=
EXTT3=
EXTT4=
EXTT5=
EXTT6=
EXTT7=
EXTT8=
EXTT9=
EXTT10=
EXTT11=
EXTT12=
EXTT13=
EXTT14=
EXTT15=
EXTT16=
EXTT17=
EXTT18=
EXTT19=
EXTT20=
PLAYORDER=
